<mxfile host="65bd71144e">
    <diagram id="KLB0dSDru476tVCzECfQ" name="Page-1">
        <mxGraphModel dx="745" dy="563" grid="1" gridSize="10" guides="1" tooltips="1" connect="1" arrows="1" fold="1" page="1" pageScale="1" pageWidth="850" pageHeight="1100" math="0" shadow="0">
            <root>
                <mxCell id="0"/>
                <mxCell id="1" parent="0"/>
                <mxCell id="5" style="edgeStyle=none;html=1;exitX=0.5;exitY=0;exitDx=0;exitDy=0;fontSize=25;" parent="1" source="2" target="6" edge="1">
                    <mxGeometry relative="1" as="geometry">
                        <mxPoint x="395" y="250" as="targetPoint"/>
                    </mxGeometry>
                </mxCell>
                <mxCell id="2" value="Ideas" style="ellipse;whiteSpace=wrap;html=1;aspect=fixed;fillColor=#6a00ff;fontColor=#ffffff;strokeColor=#3700CC;fontStyle=1;horizontal=1;fontSize=25;" parent="1" vertex="1">
                    <mxGeometry x="340" y="320" width="110" height="110" as="geometry"/>
                </mxCell>
                <mxCell id="7" style="edgeStyle=none;html=1;exitX=0.5;exitY=0;exitDx=0;exitDy=0;" edge="1" parent="1" source="6">
                    <mxGeometry relative="1" as="geometry">
                        <mxPoint x="395" y="210" as="targetPoint"/>
                    </mxGeometry>
                </mxCell>
                <mxCell id="6" value="&lt;font style=&quot;font-size: 11px;&quot;&gt;Lightgate game&lt;/font&gt;" style="rounded=0;whiteSpace=wrap;html=1;fontSize=25;verticalAlign=middle;" parent="1" vertex="1">
                    <mxGeometry x="335" y="240" width="120" height="40" as="geometry"/>
                </mxCell>
                <mxCell id="8" value="Use a lightstrip and lightgate. A dot moves along the&amp;nbsp;&lt;br&gt;lightstrip, and the user has to trigger the lightgate&lt;br&gt;when the dot is at a certain point. Closer to point,&lt;br&gt;higher score." style="ellipse;shape=cloud;whiteSpace=wrap;html=1;" vertex="1" parent="1">
                    <mxGeometry x="191.25" y="50" width="407.5" height="170" as="geometry"/>
                </mxCell>
            </root>
        </mxGraphModel>
    </diagram>
</mxfile>